<?xml version="1.0" encoding="utf-8"?>
<!-- Generator: Adobe Illustrator 19.0.0, SVG Export Plug-In . SVG Version: 6.00 Build 0)  -->
<svg version="1.1"
	 id="svg2" xmlns:rdf="http://www.w3.org/1999/02/22-rdf-syntax-ns#" xmlns:sodipodi="http://sodipodi.sourceforge.net/DTD/sodipodi-0.dtd" xmlns:cc="http://creativecommons.org/ns#" xmlns:dc="http://purl.org/dc/elements/1.1/" xmlns:svg="http://www.w3.org/2000/svg" xmlns:inkscape="http://www.inkscape.org/namespaces/inkscape" sodipodi:docname="bitcoin-logo-noshadow.svg" inkscape:version="0.48.2 r9819"
	 xmlns="http://www.w3.org/2000/svg" xmlns:xlink="http://www.w3.org/1999/xlink" x="0px" y="0px" viewBox="-1528 849.3 1024 1024"
	 style="enable-background:new -1528 849.3 1024 1024;" xml:space="preserve">
<style type="text/css">
	.st0{fill:#006FD3;}
	.st1{opacity:0.4;fill:#FCFCFC;}
	.st2{opacity:0.49;fill:#FFFFFF;}
	.st3{opacity:0.3;fill:#0075CC;}
	.st4{fill:#FFFFFF;}
	.st5{opacity:0.66;fill:#38CAF2;}
	.st6{opacity:0.74;fill:#FFFFFF;}
	.st7{fill:#1664B2;}
	.st8{fill:#004496;}
	.st9{fill:#D80043;}
</style>
<path class="st0" d="M-1021.4,880.9c0,0-30.3,86.3-184.6,217.9c0,0-224,152.8-210.3,375.3c0,0-13.6,325.3,376.8,357.1
	c0,0,158.9,15.1,275.4-78.7c0,0,107.4-80.2,133.2-202.8c0,0,66.6-184.6-83.2-354.1C-841.7,1051.5-1016.9,920.3-1021.4,880.9z"/>
<path class="st1" d="M-1014.4,927c0,0-26.7,79.6-163.2,201.1c0,0-197.9,141.1-185.9,346.4c0,0-12,300.3,333,329.6
	c0,0,140.4,14,243.4-72.6c0,0,95-74,117.7-187.1c0,0,58.8-170.4-73.6-326.8C-855.6,1084.3-1010.4,963.3-1014.4,927z"/>
<path class="st2" d="M-1293.8,1406c-35.1,142.9,104.7,337.4,83.2,331.4c-43.4-12.1-163.3-156.6-142.2-313.2s149.3-275.6,193.7-295.1
	C-1152.2,1126.1-1249.9,1227.5-1293.8,1406z"/>
<path class="st3" d="M-830.8,1136.7c0,0,290.5,370.7-49.9,638.6C-865.7,1800.5-438.8,1493.8-830.8,1136.7z"/>
<circle class="st4" cx="-1137.2" cy="1327.3" r="97.6"/>
<circle class="st4" cx="-864.8" cy="1330.4" r="97.6"/>
<circle cx="-1091.3" cy="1327.6" r="52.2"/>
<circle cx="-913.2" cy="1332.6" r="52.2"/>
<path class="st5" d="M-754.1,1508.6c0,12.3-15.2-3.2-33.3-3.2c-18.1,0-33.3-9.8-33.3-22.1c0-12.3,15.2-26.6,32.8-22.2
	C-768.2,1466.1-754.1,1496.3-754.1,1508.6z"/>
<circle class="st4" cx="-1102.1" cy="1309.7" r="23"/>
<circle class="st4" cx="-896.3" cy="1313.7" r="23"/>
<path class="st6" d="M-1211.4,1459.6c12,2.6-6.3,14.2-10.1,31.9c-3.8,17.7-16.5,30.5-28.5,27.9c-12-2.6-22.8-20.4-14.8-36.7
	C-1255.9,1464.5-1223.4,1457-1211.4,1459.6z"/>
<g>
	<path class="st7" d="M-796,1532.8c0,83.4-89.7,201.6-200.4,201.6c-110.7,0-200.4-118.2-200.4-201.6c4.5-10.5,89.7,0.8,200.4,0.8
		C-885.7,1533.6-805.2,1519-796,1532.8z"/>
	<path class="st8" d="M-807.4,1538.4c0,78.6-84.6,190-189,190c-104.4,0-189-111.4-189-190c4.2-9.9,84.6,0.8,189,0.8
		C-892,1539.2-816.2,1525.4-807.4,1538.4z"/>
	<path class="st9" d="M-996.4,1669.5c-41,0-76.7,10.9-95.6,27c28,19.5,60.7,31.9,95.6,31.9c34.9,0,67.5-12.4,95.6-31.9
		C-919.7,1680.4-955.4,1669.5-996.4,1669.5z"/>
	<path class="st4" d="M-960,1678.3c-1.6-0.3-22.6-3.1-25.7,5.6c-3.1,8.7,5.6,14.4,20.5,14.4C-950.3,1698.3-932.3,1683.9-960,1678.3z
		"/>
</g>
</svg>
