<?xml version="1.0" encoding="utf-8"?>
<!-- Generator: Adobe Illustrator 19.0.0, SVG Export Plug-In . SVG Version: 6.00 Build 0)  -->
<svg version="1.1" id="Ebene_1" xmlns="http://www.w3.org/2000/svg" xmlns:xlink="http://www.w3.org/1999/xlink" x="0px" y="0px"
	 viewBox="-1619 940.4 841.9 841.9" style="enable-background:new -1619 940.4 841.9 841.9;" xml:space="preserve">
<style type="text/css">
	.st0{fill:#006FD3;}
</style>
<g>
	<path class="st0" d="M-1321.4,1617.7c-68.5,0-132.9-26.7-181.3-75.1c-48.4-48.4-75-112.8-75-181.3s26.7-132.9,75.1-181.3
		s112.8-75.1,181.3-75.1s132.9,26.7,181.3,75.1s75.1,112.8,75.1,181.3s-26.7,132.9-75.1,181.3
		C-1188.4,1591-1252.9,1617.7-1321.4,1617.7z M-1321.4,1145c-57.8,0-112.1,22.5-153,63.4s-63.4,95.2-63.4,153
		c0,57.8,22.5,112.1,63.4,153s95.2,63.4,153,63.4c57.8,0,112.1-22.5,153-63.4s63.4-95.2,63.4-153c0-57.8-22.5-112.1-63.4-153
		C-1209.2,1167.5-1263.6,1145-1321.4,1145z"/>
</g>
<polygon class="st0" points="-1153.8,1542 -1085,1361.3 -1140.7,1193.8 -1321.4,1125 -1321.4,1361.3 -1321.4,1597.7 "/>
</svg>
