<?xml version="1.0" encoding="utf-8"?>
<!-- Generator: Adobe Illustrator 19.0.0, SVG Export Plug-In . SVG Version: 6.00 Build 0)  -->
<svg version="1.1"
	 id="svg2" xmlns:dc="http://purl.org/dc/elements/1.1/" xmlns:cc="http://creativecommons.org/ns#" xmlns:rdf="http://www.w3.org/1999/02/22-rdf-syntax-ns#" xmlns:svg="http://www.w3.org/2000/svg"
	 xmlns="http://www.w3.org/2000/svg" xmlns:xlink="http://www.w3.org/1999/xlink" x="0px" y="0px" viewBox="-2028 1349.3 24 24"
	 style="enable-background:new -2028 1349.3 24 24;" xml:space="preserve">
<style type="text/css">
	.st0{fill:#006FD3;}
</style>
<g id="g4210" transform="matrix(0,1,-1,0,130.6,-35.86)">
	<g id="g4289" transform="matrix(-1,0,0,1,-16.98,0.8136)">
		<g id="g4291">
			<path id="path4293" class="st0" d="M-1414.6,2144.3v3h0.5c0.5,0,1,0.5,1,1v2.6c-1.2,0.5-2,1.6-2,3c0,2,1.6,3.5,3.5,3.5
				s3.5-1.5,3.5-3.5c0-1.4-0.8-2.5-2-3v-2.6c0-2.3-1.8-4-4-4H-1414.6z M-1413.6,2145.5c1.4,0.3,2.5,1.3,2.5,2.8v3.2l0.3,0.1
				c1,0.3,1.7,1.2,1.7,2.3c0,1.4-1.1,2.5-2.5,2.5s-2.5-1.1-2.5-2.5c0-1.1,0.7-2,1.7-2.3l0.3-0.1v-3.2c0-0.9-0.7-1.5-1.5-1.8V2145.5z
				"/>
			<g id="g4295">
				<path id="path4297" class="st0" d="M-1416.6,2134.1c-1.9,0-3.5,1.6-3.5,3.5c0,1.4,0.8,2.5,2,3v2.7c0,2.2,1.8,4,4,4h0.5v-0.5
					v-2.5h-0.5c-0.6,0-1-0.5-1-1v-2.7c1.2-0.5,2-1.6,2-3C-1413.1,2135.7-1414.7,2134.1-1416.6,2134.1z M-1416.6,2135.1
					c1.4,0,2.5,1.2,2.5,2.5c0,1.1-0.7,2-1.7,2.3l-0.3,0.1v3.3c0,0.9,0.7,1.5,1.5,1.8v1c-1.4-0.3-2.5-1.4-2.5-2.8v-3.3l-0.3-0.1
					c-1-0.3-1.7-1.2-1.7-2.3C-1419.1,2136.3-1418,2135.1-1416.6,2135.1z"/>
				<path id="path4142" class="st0" d="M-1406.6,2134c-2,0-3.6,1.7-3.6,3.6c0,1.4,0.8,2.6,2,3.2v2.5c0,0.5-0.4,0.9-0.9,0.9h-4.3
					c-0.3,0-0.6,0.3-0.6,0.6v2c0,0.3,0.3,0.6,0.6,0.6h4.3c2.3,0,4.1-1.9,4.1-4.1v-2.5c1.2-0.6,2-1.8,2-3.2
					C-1403,2135.7-1404.6,2134-1406.6,2134z"/>
			</g>
			<path id="path4148" class="st0" d="M-1419.1,2144.2c-2.2,0-4.1,1.8-4.1,4.1v2.5c-1.2,0.5-2,1.7-2,3.1c0,2,1.6,3.6,3.6,3.6
				c2,0,3.6-1.6,3.6-3.6c0-1.4-0.8-2.6-2-3.2v-2.4c0-0.5,0.4-0.9,0.9-0.9h4.5c0.3,0,0.6-0.3,0.6-0.6v-2c0-0.3-0.3-0.6-0.6-0.6
				C-1414.6,2144.2-1419.1,2144.2-1419.1,2144.2z"/>
		</g>
	</g>
	<path id="path4170" class="st0" d="M1397.1,2143.4c-0.8,0-1.7,0.4-2.2,1c-0.6,0.5-1,1.3-1,2.2c0,0.9,0.3,1.7,1,2.2
		c0.6,0.6,1.4,1,2.2,1s1.7-0.4,2.2-1c0.6-0.5,1-1.3,1-2.2c0-0.9-0.3-1.7-1-2.2C1398.8,2143.8,1398,2143.4,1397.1,2143.4z"/>
</g>
</svg>
