<?xml version="1.0" encoding="utf-8"?>
<!-- Generator: Adobe Illustrator 19.0.0, SVG Export Plug-In . SVG Version: 6.00 Build 0)  -->
<svg version="1.1"
	 id="svg2" xmlns:dc="http://purl.org/dc/elements/1.1/" xmlns:cc="http://creativecommons.org/ns#" xmlns:rdf="http://www.w3.org/1999/02/22-rdf-syntax-ns#" xmlns:svg="http://www.w3.org/2000/svg"
	 xmlns="http://www.w3.org/2000/svg" xmlns:xlink="http://www.w3.org/1999/xlink" x="0px" y="0px" viewBox="-2028 1349.3 24 24"
	 style="enable-background:new -2028 1349.3 24 24;" xml:space="preserve">
<style type="text/css">
	.st0{fill:#006FD3;}
</style>
<g id="g4142" transform="matrix(0,-1,-1,0,23.96,24)">
	<g id="g4210" transform="matrix(-1,0,0,1,59.86,-106.6)">
		<g id="g4289" transform="matrix(-1,0,0,1,-16.98,0.8136)">
			<g id="g4291">
				<path id="path4153" class="st0" d="M-1414.1,2144.2c-0.3,0-0.6,0.3-0.6,0.6v2c0,0.3,0.3,0.6,0.6,0.6c0.5,0,0.9,0.4,0.9,0.9v2.4
					c-1.2,0.6-2,1.8-2,3.2c0,2,1.6,3.6,3.6,3.6c2,0,3.6-1.6,3.6-3.6c0-1.4-0.8-2.6-2-3.2v-2.4
					C-1410,2146-1411.9,2144.2-1414.1,2144.2z"/>
				<g id="g4295">
					<path id="path4149" class="st0" d="M-1416.6,2134c-2,0-3.6,1.7-3.6,3.6c0,1.4,0.8,2.6,2,3.2v2.5c0,2.2,1.8,4.1,4.1,4.1
						c0.3,0,0.6-0.3,0.6-0.6v-2c0-0.3-0.3-0.6-0.6-0.6c-0.5,0-0.9-0.4-0.9-0.9v-2.5c1.2-0.6,2-1.8,2-3.2
						C-1413,2135.7-1414.6,2134-1416.6,2134z"/>
					<path id="path4147" class="st0" d="M-1406.6,2134c-2,0-3.6,1.7-3.6,3.6c0,1.4,0.8,2.6,2,3.2v2.5c0,0.5-0.4,0.9-0.9,0.9h-4.3
						c-0.3,0-0.6,0.3-0.6,0.6v2c0,0.3,0.3,0.6,0.6,0.6h4.3c2.3,0,4.1-1.9,4.1-4.1v-2.5c1.2-0.6,2-1.8,2-3.2
						C-1403,2135.7-1404.6,2134-1406.6,2134z"/>
				</g>
				<path id="path4155" class="st0" d="M-1419.1,2144.2c-2.2,0-4.1,1.8-4.1,4.1v2.5c-1.2,0.5-2,1.7-2,3.1c0,2,1.6,3.6,3.6,3.6
					c2,0,3.6-1.6,3.6-3.6c0-1.4-0.8-2.6-2-3.2v-2.4c0-0.5,0.4-0.9,0.9-0.9h4.5c0.3,0,0.6-0.3,0.6-0.6v-2c0-0.3-0.3-0.6-0.6-0.6
					C-1414.6,2144.2-1419.1,2144.2-1419.1,2144.2z"/>
			</g>
		</g>
	</g>
</g>
<path id="path4170" class="st0" d="M-2012.8,1361.3c0-0.8-0.4-1.7-1-2.2c-0.5-0.6-1.3-1-2.2-1s-1.7,0.3-2.2,1c-0.6,0.6-1,1.4-1,2.2
	s0.4,1.7,1,2.2c0.5,0.6,1.3,1,2.2,1s1.7-0.3,2.2-1C-2013.2,1362.9-2012.8,1362.1-2012.8,1361.3z"/>
</svg>
