<?xml version="1.0" encoding="utf-8"?>
<!-- Generator: Adobe Illustrator 19.0.0, SVG Export Plug-In . SVG Version: 6.00 Build 0)  -->
<svg version="1.1"
	 id="svg4142" xmlns:svg="http://www.w3.org/2000/svg" xmlns:cc="http://creativecommons.org/ns#" xmlns:rdf="http://www.w3.org/1999/02/22-rdf-syntax-ns#" xmlns:dc="http://purl.org/dc/elements/1.1/"
	 xmlns="http://www.w3.org/2000/svg" xmlns:xlink="http://www.w3.org/1999/xlink" x="0px" y="0px"
	 viewBox="-1989 1309.9 102.4 102.4" style="enable-background:new -1989 1309.9 102.4 102.4;" xml:space="preserve">
<style type="text/css">
	.st0{fill:#006FD3;}
</style>
<g id="layer1" transform="translate(-284.4,-501.6)">
	<path id="path4792" class="st0" d="M-1653.1,1821.3c-10.2-0.6-19.9,7.3-21.6,17.4c-3,7,5.8,11,11,7.4c2.5-6,7.5-14.3,15.1-9.3
		c7.8,4.9,1.7,14.1-2.4,19.3c-4.9,6.2-9.1,11.8-7.1,18.4c4.3,14.2,8.6,3,10.2-0.1c3.4-6.6,4.8-7,9.2-12.9c5.1-6.9,9.3-15.9,6.2-24.6
		C-1634.8,1827.6-1643.6,1820.9-1653.1,1821.3L-1653.1,1821.3z M-1653.6,1889c-9.1,1.9-7.3,15.6,2.2,13.7
		S-1644.5,1887.1-1653.6,1889z"/>
</g>
</svg>
