<?xml version="1.0" encoding="utf-8"?>
<!-- Generator: Adobe Illustrator 19.0.0, SVG Export Plug-In . SVG Version: 6.00 Build 0)  -->
<svg version="1.1" id="Ebene_1" xmlns="http://www.w3.org/2000/svg" xmlns:xlink="http://www.w3.org/1999/xlink" x="0px" y="0px"
	 viewBox="-2028 1349.3 24 24" style="enable-background:new -2028 1349.3 24 24;" xml:space="preserve">
<style type="text/css">
	.st0{fill:#006FD3;}
</style>
<path class="st0" d="M-2015,1366.8c-2.5,0-4.5-2-4.5-4.5c0-0.6-0.4-1-1-1s-1,0.4-1,1c0,3.6,2.9,6.5,6.5,6.5s6.5-2.9,6.5-6.5
	s-2.9-6.5-6.5-6.5c-0.6,0-1,0.4-1,1s0.4,1,1,1c2.5,0,4.5,2,4.5,4.5S-2012.5,1366.8-2015,1366.8z M-2024.3,1359.6c-0.6,0-1-0.4-1-1
	c0-0.6,0.4-1,1-1h3.3l-1.7-1.7l-4.1-4.1c-0.4-0.4-0.4-1,0-1.4c0.2-0.2,0.4-0.3,0.7-0.3c0.3,0,0.5,0.1,0.7,0.3l4.1,4.1l1.7,1.7v-3.3
	c0-0.6,0.4-1,1-1s1,0.4,1,1v6.7H-2024.3"/>
</svg>
