<?xml version="1.0" encoding="utf-8"?>
<!-- Generator: Adobe Illustrator 19.0.0, SVG Export Plug-In . SVG Version: 6.00 Build 0)  -->
<svg version="1.1" id="Ebene_1" xmlns="http://www.w3.org/2000/svg" xmlns:xlink="http://www.w3.org/1999/xlink" x="0px" y="0px"
	 viewBox="-2028 1349.3 24 24" style="enable-background:new -2028 1349.3 24 24;" xml:space="preserve">
<style type="text/css">
	.st0{fill:#006FD3;}
</style>
<path class="st0" d="M-2013.3,1368.8c-2.5,0-4.5-2-4.5-4.5c0-0.6-0.4-1-1-1c-0.6,0-1,0.4-1,1c0,3.6,2.9,6.5,6.5,6.5
	c3.6,0,6.5-2.9,6.5-6.5s-2.9-6.5-6.5-6.5c-0.6,0-1,0.4-1,1s0.4,1,1,1c2.5,0,4.5,2,4.5,4.5S-2010.8,1368.8-2013.3,1368.8z
	 M-2022.1,1361.8c-0.6,0-1-0.4-1-1s0.4-1,1-1h3.2l-1.7-1.7l-4.1-4.1c-0.4-0.4-0.4-1,0-1.4c0.2-0.2,0.4-0.3,0.7-0.3s0.5,0.1,0.7,0.3
	l4.1,4.1l1.7,1.7v-3.3c0-0.6,0.4-1,1-1s1,0.4,1,1v6.7H-2022.1 M-2020.5,1350.1c0.6,0,1,0.4,1,1c0,0.6-0.4,1-1,1h-3.2l1.7,1.7
	l4.1,4.1c0.4,0.4,0.4,1,0,1.4c-0.2,0.2-0.4,0.3-0.7,0.3c-0.3,0-0.5-0.1-0.7-0.3l-4.1-4.1l-1.7-1.7v3.2c0,0.6-0.4,1-1,1s-1-0.4-1-1
	v-6.6H-2020.5"/>
</svg>
