<?xml version="1.0" encoding="utf-8"?>
<!-- Generator: Adobe Illustrator 19.0.0, SVG Export Plug-In . SVG Version: 6.00 Build 0)  -->
<svg version="1.1" id="Ebene_1" xmlns="http://www.w3.org/2000/svg" xmlns:xlink="http://www.w3.org/1999/xlink" x="0px" y="0px"
	 viewBox="-1619 1063 841.9 595.3" style="enable-background:new -1619 1063 841.9 595.3;" xml:space="preserve">
<style type="text/css">
	.st0{fill:#006FD3;}
</style>
<path class="st0" d="M-964.9,1380.5c-14.9-9.9-37.2-2.5-44.6,12.4l-62,111.6l-34.7-34.7c-12.4-12.4-34.7-12.4-47.1,0
	c-12.4,12.4-12.4,34.7,0,47.1l67,67c7.4,7.4,14.9,9.9,22.3,9.9h5c9.9-2.5,19.8-7.4,24.8-17.4l81.9-148.8
	C-942.6,1410.2-947.5,1390.4-964.9,1380.5z"/>
<path class="st0" d="M-1292.3,1534.3h-148.8v-109.2l94.3-94.3c-5-14.9-7.4-29.8-7.4-44.6c0-81.9,67-148.8,148.8-148.8
	c81.8,0,148.8,67,148.8,148.8c0,81.8-67,148.8-148.8,148.8h-37.2v49.6h-49.6L-1292.3,1534.3L-1292.3,1534.3z M-1391.5,1484.7h49.6
	v-49.6h49.6v-49.6h86.8c54.6,0,99.2-44.6,99.2-99.2c0-54.6-44.6-99.3-99.2-99.3s-99.2,44.6-99.2,99.2c0,14.9,2.5,27.3,9.9,39.7
	l7.4,14.9l-101.6,101.7v42.2H-1391.5z M-1205.5,1261.4c14.9,0,24.8,9.9,24.8,24.8s-9.9,24.8-24.8,24.8s-24.8-9.9-24.8-24.8
	C-1230.3,1271.3-1217.9,1261.4-1205.5,1261.4 M-1205.5,1236.6c-27.3,0-49.6,22.3-49.6,49.6c0,27.3,22.3,49.6,49.6,49.6
	s49.6-22.3,49.6-49.6C-1155.9,1258.9-1175.7,1236.6-1205.5,1236.6z"/>
</svg>
